<mxfile host="app.diagrams.net" modified="2022-09-03T00:04:54.810Z" agent="5.0 (Windows NT 10.0; Win64; x64) AppleWebKit/537.36 (KHTML, like Gecko) Chrome/104.0.5112.102 Safari/537.36" etag="D_hgeRO1c97OkpDP8SPQ" version="20.2.8" type="github">
  <diagram id="-3AMFFtKCczr6PJ7xZKp" name="PÃ¡gina-1">
    <mxGraphModel dx="868" dy="482" grid="1" gridSize="10" guides="1" tooltips="1" connect="1" arrows="1" fold="1" page="1" pageScale="1" pageWidth="827" pageHeight="1169" math="0" shadow="0">
      <root>
        <mxCell id="0" />
        <mxCell id="1" parent="0" />
        <mxCell id="rqUFjf_ysvI5r7aMsHxQ-1" value="ESTACIONAMENTO" style="rounded=0;whiteSpace=wrap;html=1;" vertex="1" parent="1">
          <mxGeometry x="40" y="90" width="170" height="70" as="geometry" />
        </mxCell>
        <mxCell id="rqUFjf_ysvI5r7aMsHxQ-2" value="Sistema de Gerenciamento de Estacionamento" style="text;html=1;resizable=0;autosize=1;align=center;verticalAlign=middle;points=[];fillColor=none;strokeColor=none;rounded=0;fontStyle=1;fontSize=21;" vertex="1" parent="1">
          <mxGeometry x="145" y="30" width="490" height="40" as="geometry" />
        </mxCell>
      </root>
    </mxGraphModel>
  </diagram>
</mxfile>
